<?xml version="1.0" encoding="UTF-8" standalone="no"?>
<svg width="219px" height="49px" viewBox="0 0 219 49" version="1.1" xmlns="http://www.w3.org/2000/svg" xmlns:xlink="http://www.w3.org/1999/xlink" xmlns:sketch="http://www.bohemiancoding.com/sketch/ns">
    <!-- Generator: Sketch 3.4.2 (15855) - http://www.bohemiancoding.com/sketch -->
    <title>Main Logo</title>
    <desc>Created with Sketch.</desc>
    <defs></defs>
    <g id="Page-1" stroke="none" stroke-width="1" fill="none" fill-rule="evenodd" sketch:type="MSPage">
        <g id="Single-Bike" sketch:type="MSArtboardGroup" transform="translate(-588.000000, -26.000000)" fill="#FFFFFF">
            <g id="Header" sketch:type="MSLayerGroup">
                <g id="Story-+-Process-+-Group-+-Goods-+-Bikes" transform="translate(239.000000, 26.000000)" sketch:type="MSShapeGroup">
                    <g id="Main-Logo" transform="translate(349.000000, 0.000000)">
                        <path d="M5.84436651,19.4910381 L11.7558492,19.4910381 L13.8932487,21.6515845 L13.8932487,24.3637598 L11.9996321,26.2777907 L5.84436651,26.2777907 L5.84436651,19.4910381 Z M5.84436651,9.63244021 L11.9824358,9.63244021 L13.8780755,11.5484918 L13.8775697,14.1328629 L11.4356945,16.6010485 L5.84436651,16.6010485 L5.84436651,9.63244021 Z M0.511488915,26.2777907 L0.511488915,29.1576773 L13.1669577,29.1576773 L16.7554219,25.5624918 L16.7584566,20.5094299 L14.2184612,17.8836361 L16.7432834,15.2750175 L16.7432834,10.3527907 L13.1715097,6.74295567 L0.513006236,6.74295567 L0.513006236,9.63244021 L2.54520485,9.63244021 L2.54520485,26.2777907 L0.511488915,26.2777907 Z" id="Fill-1"></path>
                        <path d="M69.9195686,19.6814814 L60.9228665,19.6814814 L60.9228665,18.7509866 L68.0138134,9.61880103 L69.9195686,9.61880103 L69.9195686,19.6814814 Z M66.6128203,6.7459866 L58.0576587,17.7270381 L58.0576587,26.3096155 L56.3112222,26.3096155 L56.3112222,29.1824299 L62.6687972,29.1824299 L62.6687972,26.3096155 L60.9228665,26.3096155 L60.9228665,22.554801 L69.9195686,22.554801 L69.9195686,26.3096155 L68.1321644,26.3096155 L68.1321644,29.1824299 L74.4892337,29.1824299 L74.4892337,26.3096155 L72.785788,26.3096155 L72.785788,6.7459866 L66.6128203,6.7459866 Z" id="Fill-2"></path>
                        <path d="M39.1871418,26.2630402 L39.1871418,29.1550505 L53.1348624,29.1550505 L53.1348624,24.9299371 L50.2079501,24.9299371 L50.2079501,26.2630402 L44.3258023,26.2630402 L44.3258023,19.4661845 L51.7020055,19.4661845 L51.7020055,16.5736691 L44.3258023,16.5736691 L44.3258023,9.59495773 L50.2079501,9.59495773 L50.2079501,11.2695454 L53.1348624,11.2695454 L53.1368855,6.70345258 L39.1891649,6.70345258 L39.1891649,9.59495773 L40.8754143,9.59495773 L40.8754143,26.2630402 L39.1871418,26.2630402 Z" id="Fill-3"></path>
                        <path d="M32.2196543,17.1606082 L24.9152709,17.1606082 L24.9152709,9.58530928 L30.3199684,9.58530928 L32.2196543,11.5064124 L32.2196543,17.1606082 Z M35.0894141,10.3076804 L31.502973,6.70037113 L20.1837582,6.69127835 L20.1837582,9.58530928 L21.6105457,9.58530928 L21.6105457,26.2650103 L20.3233517,26.2650103 L20.3233517,29.1585361 L27.7759268,29.1585361 L27.7759268,26.2650103 L24.9152709,26.2650103 L24.9152709,20.0551443 L27.7137166,20.0551443 L31.540906,29.1585361 L35.1318991,29.1585361 L35.1318991,26.2650103 L33.6520053,26.2650103 L31.1641046,20.0551443 L35.0904256,20.0551443 L35.0894141,10.3076804 Z" id="Fill-4"></path>
                        <path d="M82.8679309,9.62769175 L88.2589725,9.62769175 L90.1546122,11.542733 L90.1546122,24.3913412 L88.2589725,26.3063825 L82.8679309,26.3063825 L82.8679309,9.62769175 Z M78.0059286,26.3063825 L78.0059286,29.1943515 L89.4389425,29.1943515 L93.0188085,25.5870423 L93.0188085,10.347032 L89.4389425,6.74881546 L78.0059286,6.73972268 L78.0059286,9.62769175 L79.5697808,9.62769175 L79.5697808,26.3063825 L78.0059286,26.3063825 Z" id="Fill-5"></path>
                        <path d="M195.974502,9.31990103 L196.656285,10.5267155 L197.959158,10.5267155 L197.959158,7.83424124 C197.959158,7.17804536 197.584885,6.81685979 196.904114,6.81685979 L185.271319,6.81382887 L185.271319,7.80241649 L186.563571,8.54145773 L186.563571,27.3887773 L185.271319,27.9520247 L185.271319,29.0416433 L196.904114,29.0482103 C197.57477,29.0482103 197.959158,28.6774268 197.959158,28.031334 L197.959158,25.3186536 L196.656285,25.3186536 L195.963881,26.5451691 L189.71353,26.5451691 L189.71353,19.2926639 L193.400114,19.2926639 L194.057114,20.1994165 L195.227474,20.1994165 L195.234555,16.5724062 C195.234555,16.5400763 195.229497,16.5173443 195.227474,16.5203753 L195.227474,15.7192 L194.04801,15.7192 L193.386458,16.7886124 L189.71353,16.7886124 L189.71353,9.31990103 L195.974502,9.31990103 Z" id="Fill-6"></path>
                        <path d="M138.276549,7.88728247 L138.276549,6.81584948 L132.762605,6.80473608 L132.762605,7.83676701 L134.015912,8.55307629 L134.015912,27.4125196 L132.761593,27.9590969 L132.761593,29.0482103 L138.275538,29.0482103 L138.275538,28.0131485 L137.166376,27.4155505 L137.166376,8.55055052 L138.276549,7.88728247 Z" id="Fill-8"></path>
                        <path d="M159.764293,7.89915361 L159.764293,6.8257 L154.23821,6.8257 L154.23821,7.86076186 L155.504667,8.55534948 L155.504667,18.8584835 L148.545222,9.60809175 L148.545222,7.54908144 C148.545222,7.1030299 148.22355,6.8257 147.705637,6.8257 L144.083286,6.8257 L144.083286,7.86177216 L145.387171,8.55635979 L145.395263,27.4142876 L144.086321,27.9573289 L144.086321,29.0484629 L149.651855,29.0484629 L149.651855,28.013401 L148.545222,27.4152979 L148.545222,14.8955454 L155.504667,23.8135454 L155.504667,28.3250814 C155.504667,28.7847722 155.798016,29.0484629 156.308848,29.0484629 L159.746591,29.0484629 L159.746591,28.0144113 L158.655132,27.4163082 L158.655132,8.55029794 L159.764293,7.89915361 Z" id="Fill-10"></path>
                        <path d="M180.603736,7.86162062 L180.603736,6.82554845 L176.981385,6.82554845 C176.463473,6.82554845 176.142813,7.10287835 176.142813,7.5489299 L176.142813,9.60794021 L169.182355,18.8588371 L169.182355,8.55519794 L170.448813,7.86061031 L170.448813,6.82554845 L164.92273,6.82554845 L164.92273,7.89900206 L166.03088,8.55014639 L166.03088,27.433332 L164.940432,28.0122392 L164.940432,29.0483113 L168.378175,29.0483113 C168.881926,29.0483113 169.182355,28.7780536 169.182355,28.3249299 L169.182355,23.8133938 L176.142813,14.8953938 L176.142813,27.3994866 L175.035168,28.0142598 L175.035168,29.0483113 L180.600702,29.0483113 L180.600702,27.9571773 L179.29176,27.4146412 L179.299852,8.55620825 L180.603736,7.86162062 Z" id="Fill-12"></path>
                        <path d="M207.27738,17.0550814 L207.27738,9.32166907 L211.815687,9.32166907 C212.591038,9.32166907 213.055339,9.68790619 213.055339,10.3016691 C213.055339,10.6527515 212.877306,11.0427309 212.568279,11.3720918 L207.27738,17.0550814 Z M217.358461,27.385999 L211.302833,16.9308134 L215.041006,12.8981639 C215.907396,11.9631227 216.383329,10.8947206 216.383329,9.88996804 C216.383329,9.50908144 216.303417,9.12667938 216.154214,8.79226701 C215.695983,7.63091649 214.279311,6.81963814 212.710401,6.81963814 L202.823031,6.81660722 L202.823031,7.80620515 L204.127927,8.55130825 L204.127927,27.4026691 L202.823031,27.951267 L202.823031,29.0413907 L208.376932,29.0413907 L208.376932,28.0063289 L207.27738,27.4152979 L207.27738,21.2352361 L208.988412,19.3995041 L213.99456,27.4557103 L213.021452,27.9618753 L213.021452,29.0413907 L218.552593,29.0413907 L218.552593,28.0053186 L217.358461,27.385999 Z" id="Fill-14"></path>
                        <path d="M110.98748,2.87028866 L115.349778,2.87028866 L113.099591,11.3336495 L110.98748,2.87028866 Z M128.327931,2.85968041 L218.544804,2.87028866 L218.544804,0 L123.971702,0 L124.904349,2.67883505 L117.452785,26.8590722 L114.494515,16.9454124 L118.427917,2.67176289 L117.608058,0 L108.427254,0 L107.681238,2.67479381 L111.557487,16.9454124 L108.654346,26.8621031 L101.171931,2.67479381 L101.983697,0.0161649485 L0,0.0161649485 L0,2.9021134 L97.535418,2.9021134 L106.663621,32.7532165 L0.103683603,32.7532165 L0.0905334873,35.6073402 L111.302577,35.6073402 L110.39876,32.9416392 L113.05306,23.3103608 L115.781709,32.9446701 L114.939596,35.6073402 L218.544804,35.6568454 L218.544804,32.7698866 L119.331734,32.7698866 L128.327931,2.85968041 Z" id="Fill-16"></path>
                        <path d="M140.281891,46.6892206 C140.026982,46.6892206 139.823661,46.4720041 139.823661,45.5834371 C139.823661,44.6943649 140.026982,44.4771485 140.281891,44.4771485 C140.536801,44.4771485 140.739111,44.6943649 140.739111,45.5834371 C140.739111,46.4720041 140.536801,46.6892206 140.281891,46.6892206 M140.281891,44.2366948 C139.838328,44.2366948 139.540933,44.6074784 139.540933,45.5834371 C139.540933,46.5588907 139.838328,46.9291691 140.281891,46.9291691 C140.725455,46.9291691 141.02285,46.5588907 141.02285,45.5834371 C141.02285,44.6074784 140.725455,44.2366948 140.281891,44.2366948" id="Fill-18"></path>
                        <path d="M144.069479,45.4204237 L143.822661,45.4204237 L143.822661,44.5126608 L144.069479,44.5126608 C144.476627,44.5126608 144.607116,44.6727948 144.607116,44.9667948 C144.607116,45.2607948 144.476627,45.4204237 144.069479,45.4204237 M144.891361,44.9516402 C144.891361,44.5207433 144.592955,44.2732175 144.172151,44.2732175 L143.538922,44.2732175 L143.538922,46.8934546 L143.822661,46.8934546 L143.822661,45.6659289 L144.192888,45.6522897 L144.614703,46.8934546 L144.912098,46.8934546 L144.469546,45.5941969 C144.75986,45.4926608 144.891361,45.2456402 144.891361,44.9516402" id="Fill-20"></path>
                        <path d="M147.748224,46.6537082 L147.748224,45.6454196 L148.423937,45.6454196 L148.423937,45.4054711 L147.748224,45.4054711 L147.748224,44.5128629 L148.66418,44.5128629 L148.66418,44.2729144 L147.465496,44.2729144 L147.465496,46.8936567 L148.70717,46.8936567 L148.70717,46.6537082 L147.748224,46.6537082 Z" id="Fill-22"></path>
                        <path d="M77.6780861,45.4707371 L77.3796797,45.4707371 L77.3796797,44.5129639 L77.6780861,44.5129639 C77.9613194,44.5129639 78.1287305,44.6655206 78.1287305,44.9913454 C78.1287305,45.3186856 77.9613194,45.4707371 77.6780861,45.4707371 M77.7134903,44.2730155 L77.0964464,44.2730155 L77.0964464,46.8932526 L77.3796797,46.8932526 L77.3796797,45.7096753 L77.7134903,45.7096753 C78.1353055,45.7096753 78.411458,45.4272938 78.411458,44.9913454 C78.411458,44.5569124 78.1353055,44.2730155 77.7134903,44.2730155" id="Fill-24"></path>
                        <path d="M81.2910804,46.6537082 L81.1383367,46.6537082 L81.1383367,44.5128629 L81.2910804,44.5128629 C81.705309,44.5128629 81.94454,44.6861309 81.94454,45.5832856 C81.94454,46.4789247 81.705309,46.6537082 81.2910804,46.6537082 M81.3421635,44.2729144 L80.8551035,44.2729144 L80.8551035,46.8936567 L81.3421635,46.8936567 C81.8939626,46.8936567 82.2277732,46.5885433 82.2277732,45.5832856 C82.2277732,44.5780278 81.8939626,44.2729144 81.3421635,44.2729144" id="Fill-26"></path>
                        <path d="M85.9939157,44.2729649 L85.6889342,44.2729649 L85.3182021,45.2024495 L84.9191467,44.2729649 L84.6136594,44.2729649 L85.1583776,45.5004907 L84.5914053,46.8937072 L84.8968926,46.8937072 L85.3182021,45.7975216 L85.7976755,46.8937072 L86.102657,46.8937072 L85.4780266,45.5004907 L85.9939157,44.2729649 Z" id="Fill-28"></path>
                        <path d="M93.9712309,41.3772165 C92.6966813,41.3772165 91.8338314,42.1071649 91.8338314,43.064433 L91.8338314,47.095567 C91.8338314,48.4327113 92.9930647,48.8231959 93.9975312,48.8231959 C95.1694088,48.8231959 96.0843533,48.0311134 96.0843533,47.1263814 L96.0843533,46.6732577 L94.7703533,46.6732577 L94.7703533,47.033433 C94.7703533,47.6098144 94.3060531,47.7744948 93.946448,47.7744948 C93.3536813,47.7744948 93.1473256,47.445134 93.1473256,47.0238351 L93.1473256,43.2796289 C93.1473256,42.7860928 93.3020924,42.4259175 93.9585866,42.4259175 C94.4613256,42.4259175 94.7703533,42.7764948 94.7703533,43.1876907 L94.7703533,43.5367526 L96.0843533,43.5367526 L96.0843533,43.1255567 C96.0843533,42.1071649 95.1825589,41.3772165 93.9712309,41.3772165" id="Fill-30"></path>
                        <path d="M101.619591,44.3489402 L101.593291,44.3489402 L100.537235,41.4392495 L99.1473693,41.4392495 L100.949947,45.6658784 L100.949947,48.7609608 L102.262935,48.7609608 L102.262935,45.6658784 L104.066018,41.4392495 L102.675141,41.4392495 L101.619591,44.3489402 Z" id="Fill-32"></path>
                        <path d="M109.357321,41.3772165 C108.082266,41.3772165 107.219416,42.1071649 107.219416,43.064433 L107.219416,47.095567 C107.219416,48.4327113 108.378649,48.8231959 109.38261,48.8231959 C110.554993,48.8231959 111.469432,48.0311134 111.469432,47.1263814 L111.469432,46.6732577 L110.155938,46.6732577 L110.155938,47.033433 C110.155938,47.6098144 109.692143,47.7744948 109.331527,47.7744948 C108.738254,47.7744948 108.53291,47.445134 108.53291,47.0238351 L108.53291,43.2796289 C108.53291,42.7860928 108.687677,42.4259175 109.344677,42.4259175 C109.84691,42.4259175 110.155938,42.7764948 110.155938,43.1876907 L110.155938,43.5367526 L111.469432,43.5367526 L111.469432,43.1255567 C111.469432,42.1071649 110.567638,41.3772165 109.357321,41.3772165" id="Fill-34"></path>
                        <path d="M116.424547,41.439401 L115.110547,41.439401 L115.110547,48.7611124 L119.026753,48.7611124 L119.026753,47.7124113 L116.424547,47.7124113 L116.424547,41.439401 Z" id="Fill-36"></path>
                        <path d="M122.450385,48.7611629 L126.365074,48.7611629 L126.365074,47.7124619 L123.764385,47.7124619 L123.764385,45.563534 L126.030252,45.563534 L126.030252,44.5759567 L123.764385,44.5759567 L123.764385,42.4260186 L126.365074,42.4260186 L126.365074,41.4394515 L122.450385,41.4394515 L122.450385,48.7611629 Z" id="Fill-38"></path>
                        <path d="M131.849683,41.3772165 C130.342478,41.3772165 129.59545,42.2718454 129.59545,43.3821753 C129.59545,44.2985258 129.891833,44.8946082 131.024767,45.2653918 L131.965506,45.5735361 C132.608344,45.7786289 132.724672,45.9018866 132.724672,46.6843711 C132.724672,47.3521856 132.660944,47.7744948 131.771794,47.7744948 C131.101644,47.7744948 130.845217,47.4047216 130.845217,47.0238351 L130.845217,46.6939691 L129.531217,46.6939691 L129.531217,47.0859691 C129.531217,48.0725361 130.497245,48.8231959 131.771794,48.8231959 C133.4717,48.8231959 134.03766,47.9078557 134.03766,46.6732577 C134.03766,45.6038454 133.819672,45.017866 132.660944,44.6688041 L131.655972,44.3490412 C130.973683,44.1338454 130.90945,43.9383505 130.90945,43.3730825 C130.90945,42.8896495 131.076355,42.4259175 131.797083,42.4259175 C132.467233,42.4259175 132.724672,42.8275155 132.724672,43.3109485 L132.724672,43.547866 L134.03766,43.547866 L134.03766,43.0326082 C134.03766,42.2208247 133.162672,41.3772165 131.849683,41.3772165" id="Fill-40"></path>
                    </g>
                </g>
            </g>
        </g>
    </g>
</svg>