<?xml version="1.0" encoding="UTF-8" standalone="no"?>
<svg width="18px" height="18px" viewBox="0 0 18 18" version="1.1" xmlns="http://www.w3.org/2000/svg" xmlns:xlink="http://www.w3.org/1999/xlink" xmlns:sketch="http://www.bohemiancoding.com/sketch/ns">
    <!-- Generator: Sketch 3.4.2 (15855) - http://www.bohemiancoding.com/sketch -->
    <title>Shape</title>
    <desc>Created with Sketch.</desc>
    <defs></defs>
    <g id="Page-1" stroke="none" stroke-width="1" fill="none" fill-rule="evenodd" sketch:type="MSPage">
        <g id="Single-Bike" sketch:type="MSArtboardGroup" transform="translate(-1362.000000, -26.000000)" fill="#FFFFFF">
            <g id="Header" sketch:type="MSLayerGroup">
                <g id="utility" transform="translate(1282.000000, 26.000000)" sketch:type="MSShapeGroup">
                    <path d="M97.5958292,15.2273135 L93.2905758,10.9220601 C93.9399524,9.85685455 94.3136288,8.60367151 94.3136288,7.26504417 C94.3136288,3.37220195 90.9402879,3.0836607e-07 87.0474457,3.0836607e-07 C83.1546035,-0.00113894894 80,3.1546038 80,7.04744603 C80,10.939149 83.3733409,14.3124899 87.2650439,14.3124899 C88.5603794,14.3124899 89.7714099,13.9604594 90.8138304,13.3509567 L95.1418689,17.6812738 C95.5656726,18.1039382 96.2526448,18.1039382 96.6753092,17.6812738 L97.7496289,16.6069541 C98.1722934,16.1842897 98.0184936,15.649978 97.5958292,15.2273135 L97.5958292,15.2273135 Z M82.1691459,7.04744603 C82.1691459,4.35196323 84.3531022,2.16800697 87.0474457,2.16800697 C89.7429285,2.16800697 92.1444829,4.56842212 92.1444829,7.26504417 C92.1444829,9.95938771 89.9593874,12.1444832 87.2650439,12.1444832 C84.5695611,12.143344 82.1691459,9.74178957 82.1691459,7.04744603 L82.1691459,7.04744603 Z" id="Shape"></path>
                </g>
            </g>
        </g>
    </g>
</svg>