<?xml version="1.0" encoding="UTF-8" standalone="no"?>
<svg width="18px" height="12px" viewBox="0 0 18 12" version="1.1" xmlns="http://www.w3.org/2000/svg" xmlns:xlink="http://www.w3.org/1999/xlink" xmlns:sketch="http://www.bohemiancoding.com/sketch/ns">
    <!-- Generator: Sketch 3.4.2 (15855) - http://www.bohemiancoding.com/sketch -->
    <title>Shape</title>
    <desc>Created with Sketch.</desc>
    <defs></defs>
    <g id="Page-1" stroke="none" stroke-width="1" fill="none" fill-rule="evenodd" sketch:type="MSPage">
        <g id="mail" sketch:type="MSLayerGroup" fill="#9B9B9B">
            <path d="M0.574,1.286 C1.062,1.548 7.822,5.18 8.074,5.315 C8.326,5.45 8.652,5.514 8.98,5.514 C9.308,5.514 9.634,5.45 9.886,5.315 C10.138,5.18 16.898,1.548 17.386,1.286 C17.875,1.023 18.337,0 17.44,0 L0.521,0 C-0.376,0 0.086,1.023 0.574,1.286 L0.574,1.286 Z M17.613,3.489 C17.058,3.778 10.226,7.338 9.886,7.516 C9.546,7.694 9.308,7.715 8.98,7.715 C8.652,7.715 8.414,7.694 8.074,7.516 C7.734,7.338 0.941,3.777 0.386,3.488 C-0.004,3.284 5.55111512e-17,3.523 5.55111512e-17,3.707 L5.55111512e-17,11 C5.55111512e-17,11.42 0.566,12 1,12 L17,12 C17.434,12 18,11.42 18,11 L18,3.708 C18,3.524 18.004,3.285 17.613,3.489 L17.613,3.489 Z" id="Shape" sketch:type="MSShapeGroup"></path>
        </g>
    </g>
</svg>